<svg width="506" height="377" viewBox="0 0 506 377" fill="none" xmlns="http://www.w3.org/2000/svg">
<path d="M156.235 28.2841H298.625V116.619C298.625 118.417 297.91 120.142 296.638 121.414C295.366 122.686 293.641 123.4 291.842 123.4H163.018C161.219 123.4 159.494 122.686 158.222 121.414C156.95 120.142 156.235 118.417 156.235 116.619V28.2841Z" fill="white"/>
<path d="M291.842 124.203H163.018C161.005 124.199 159.075 123.396 157.653 121.97C156.231 120.545 155.432 118.614 155.432 116.601V28.2841C155.432 28.0695 155.516 27.8633 155.666 27.7099C155.816 27.5564 156.02 27.4679 156.235 27.4632H298.625C298.842 27.4632 299.051 27.5497 299.205 27.7037C299.359 27.8576 299.446 28.0664 299.446 28.2841V116.601C299.446 118.617 298.645 120.551 297.219 121.977C295.792 123.402 293.858 124.203 291.842 124.203V124.203ZM157.056 29.105V116.548C157.056 118.13 157.684 119.648 158.801 120.769C159.919 121.889 161.435 122.521 163.018 122.526H291.842C293.428 122.526 294.948 121.896 296.07 120.775C297.191 119.654 297.821 118.133 297.821 116.548V29.105H157.056Z" fill="#231F20"/>
<path d="M163.018 15.6495H291.842C293.641 15.6495 295.366 16.364 296.638 17.6357C297.91 18.9075 298.625 20.6323 298.625 22.4308V28.2841H156.235V22.4308C156.235 20.6323 156.95 18.9075 158.222 17.6357C159.494 16.364 161.219 15.6495 163.018 15.6495Z" fill="white"/>
<path d="M298.625 29.105H156.235C156.02 29.1003 155.816 29.0118 155.666 28.8583C155.516 28.7049 155.432 28.4988 155.432 28.2841V22.4308C155.437 20.4208 156.237 18.4944 157.659 17.0731C159.081 15.6518 161.008 14.8512 163.018 14.8465H291.842C293.849 14.8559 295.771 15.6586 297.189 17.0794C298.607 18.5002 299.405 20.4238 299.41 22.4308V28.2841C299.41 28.4958 299.329 28.6993 299.182 28.8523C299.036 29.0052 298.836 29.0958 298.625 29.105V29.105ZM157.056 27.4632H297.821V22.4308C297.817 20.8484 297.185 19.3324 296.064 18.2151C294.943 17.0978 293.424 16.4704 291.842 16.4704H163.018C161.438 16.4751 159.925 17.1046 158.808 18.2214C157.691 19.3382 157.061 20.8515 157.056 22.4308V27.4632Z" fill="#231F20"/>
<path d="M191.293 63.6359C196.36 63.6359 200.467 59.5292 200.467 54.4633C200.467 49.3975 196.36 45.2908 191.293 45.2908C186.225 45.2908 182.118 49.3975 182.118 54.4633C182.118 59.5292 186.225 63.6359 191.293 63.6359Z" fill="#00C49A"/>
<path d="M174.621 82.1951C174.762 77.8667 176.582 73.7628 179.695 70.751C182.807 67.7391 186.97 66.0552 191.301 66.0552C195.633 66.0552 199.796 67.7391 202.908 70.751C206.021 73.7628 207.841 77.8667 207.982 82.1951H174.621Z" fill="#00C49A"/>
<path d="M263.567 63.6359C268.634 63.6359 272.742 59.5292 272.742 54.4633C272.742 49.3975 268.634 45.2908 263.567 45.2908C258.5 45.2908 254.392 49.3975 254.392 54.4633C254.392 59.5292 258.5 63.6359 263.567 63.6359Z" fill="#00C49A"/>
<path d="M246.895 82.1951C247.037 77.8667 248.856 73.7628 251.969 70.751C255.082 67.7391 259.244 66.0552 263.576 66.0552C267.908 66.0552 272.07 67.7391 275.183 70.751C278.296 73.7628 280.115 77.8667 280.257 82.1951H246.895Z" fill="#00C49A"/>
<path d="M243.093 55.2842H221.673C221.455 55.2842 221.247 55.1977 221.093 55.0438C220.939 54.8899 220.852 54.6811 220.852 54.4633C220.852 54.2456 220.939 54.0368 221.093 53.8829C221.247 53.7289 221.455 53.6425 221.673 53.6425H241.201L236.935 49.1632C236.859 49.0886 236.799 48.9996 236.758 48.9016C236.718 48.8036 236.696 48.6984 236.696 48.5922C236.696 48.486 236.718 48.3808 236.758 48.2828C236.799 48.1848 236.859 48.0958 236.935 48.0211C237.091 47.8717 237.299 47.7883 237.515 47.7883C237.731 47.7883 237.939 47.8717 238.095 48.0211L243.664 53.8923C243.776 54.0047 243.852 54.1485 243.88 54.3046C243.909 54.4607 243.89 54.6218 243.825 54.7667C243.766 54.9146 243.666 55.0422 243.536 55.1341C243.406 55.226 243.252 55.2781 243.093 55.2842Z" fill="#231F20"/>
<path d="M237.738 60.513C237.517 60.5107 237.305 60.4209 237.149 60.2631C236.995 60.1092 236.909 59.9006 236.909 59.6831C236.909 59.4657 236.995 59.2571 237.149 59.1032L242.504 53.8923C242.662 53.7503 242.869 53.675 243.081 53.6823C243.294 53.6896 243.495 53.7788 243.643 53.9313C243.791 54.0837 243.874 54.2875 243.874 54.4999C243.875 54.7122 243.793 54.9166 243.647 55.0701L238.292 60.281C238.143 60.4253 237.945 60.5082 237.738 60.513V60.513Z" fill="#231F20"/>
<path d="M232.937 62.1547H211.517C211.358 62.1574 211.202 62.113 211.069 62.0273C210.935 61.9415 210.83 61.8182 210.767 61.6729C210.703 61.5248 210.684 61.3612 210.713 61.2026C210.741 61.0439 210.816 60.8971 210.928 60.7806L216.497 54.9273C216.57 54.8455 216.658 54.7791 216.757 54.732C216.856 54.685 216.964 54.6582 217.073 54.6534C217.183 54.6486 217.292 54.6657 217.395 54.7039C217.498 54.742 217.592 54.8004 217.672 54.8755C217.752 54.9506 217.816 55.0409 217.86 55.1412C217.905 55.2414 217.929 55.3496 217.931 55.4592C217.933 55.5688 217.912 55.6777 217.872 55.7795C217.831 55.8812 217.77 55.9737 217.693 56.0516L213.409 60.5129H232.937C233.153 60.5175 233.359 60.6054 233.512 60.7584C233.665 60.9114 233.753 61.1175 233.758 61.3338C233.758 61.5515 233.671 61.7603 233.517 61.9143C233.363 62.0682 233.154 62.1547 232.937 62.1547V62.1547Z" fill="#231F20"/>
<path d="M216.854 67.3656C216.75 67.3671 216.648 67.3473 216.553 67.3073C216.458 67.2674 216.372 67.2083 216.3 67.1336L210.945 61.9406C210.796 61.7845 210.712 61.5767 210.712 61.3606C210.712 61.1445 210.796 60.9367 210.945 60.7806C211.099 60.627 211.308 60.5407 211.525 60.5407C211.743 60.5407 211.952 60.627 212.106 60.7806L217.461 65.9915C217.536 66.0662 217.596 66.1551 217.637 66.2531C217.678 66.3511 217.699 66.4563 217.699 66.5625C217.699 66.6688 217.678 66.7739 217.637 66.8719C217.596 66.97 217.536 67.0589 217.461 67.1336C217.38 67.2107 217.285 67.2709 217.181 67.3107C217.076 67.3505 216.965 67.3692 216.854 67.3656Z" fill="#231F20"/>
<path d="M269.886 92.9916H184.974C184.737 92.9916 184.51 92.8976 184.343 92.7303C184.175 92.5629 184.081 92.336 184.081 92.0993C184.086 91.8641 184.181 91.6398 184.348 91.4735C184.514 91.3071 184.738 91.2116 184.974 91.2071H269.886C270.123 91.2071 270.35 91.3011 270.517 91.4684C270.685 91.6357 270.779 91.8627 270.779 92.0993C270.779 92.336 270.685 92.5629 270.517 92.7303C270.35 92.8976 270.123 92.9916 269.886 92.9916Z" fill="#D1D3D4"/>
<path d="M269.886 99.0234H184.974C184.737 99.0234 184.51 98.9294 184.343 98.762C184.175 98.5947 184.081 98.3677 184.081 98.1311C184.086 97.8959 184.181 97.6716 184.348 97.5052C184.514 97.3389 184.738 97.2434 184.974 97.2388H269.886C270.123 97.2388 270.35 97.3328 270.517 97.5002C270.685 97.6675 270.779 97.8945 270.779 98.1311C270.779 98.3677 270.685 98.5947 270.517 98.762C270.35 98.9294 270.123 99.0234 269.886 99.0234Z" fill="#D1D3D4"/>
<path d="M261.157 105.127H184.974C184.737 105.127 184.51 105.033 184.343 104.865C184.175 104.698 184.081 104.471 184.081 104.234C184.086 103.999 184.181 103.775 184.348 103.608C184.514 103.442 184.738 103.347 184.974 103.342H261.157C261.393 103.347 261.617 103.442 261.783 103.608C261.95 103.775 262.045 103.999 262.05 104.234C262.05 104.471 261.956 104.698 261.789 104.865C261.621 105.033 261.394 105.127 261.157 105.127Z" fill="#D1D3D4"/>
<path d="M166.249 24.144C167.452 24.144 168.427 23.1692 168.427 21.9668C168.427 20.7644 167.452 19.7897 166.249 19.7897C165.046 19.7897 164.071 20.7644 164.071 21.9668C164.071 23.1692 165.046 24.144 166.249 24.144Z" fill="#00C49A"/>
<path d="M173.924 24.144C175.127 24.144 176.102 23.1692 176.102 21.9668C176.102 20.7644 175.127 19.7897 173.924 19.7897C172.722 19.7897 171.747 20.7644 171.747 21.9668C171.747 23.1692 172.722 24.144 173.924 24.144Z" fill="#D1D3D4"/>
<path d="M181.6 24.144C182.803 24.144 183.778 23.1692 183.778 21.9668C183.778 20.7644 182.803 19.7897 181.6 19.7897C180.397 19.7897 179.422 20.7644 179.422 21.9668C179.422 23.1692 180.397 24.144 181.6 24.144Z" fill="#D1D3D4"/>
<path d="M320.669 20.1288H504.417V236.915C504.417 239.281 503.477 241.551 501.803 243.224C500.129 244.898 497.859 245.838 495.492 245.838H329.576C327.209 245.838 324.939 244.898 323.266 243.224C321.592 241.551 320.651 239.281 320.651 236.915V20.1288H320.669Z" fill="white"/>
<path d="M495.492 246.73H329.487C326.887 246.725 324.394 245.689 322.557 243.849C320.719 242.009 319.688 239.515 319.688 236.915V20.1288C319.688 19.8921 319.782 19.6652 319.949 19.4978C320.116 19.3305 320.343 19.2365 320.58 19.2365H504.417C504.654 19.2365 504.881 19.3305 505.048 19.4978C505.216 19.6652 505.31 19.8921 505.31 20.1288V236.915C505.305 239.517 504.269 242.01 502.429 243.85C500.589 245.69 498.095 246.725 495.492 246.73V246.73ZM321.562 21.021V236.951C321.562 239.077 322.406 241.117 323.908 242.623C325.411 244.128 327.449 244.976 329.576 244.981H495.581C497.71 244.976 499.751 244.129 501.256 242.624C502.761 241.119 503.609 239.079 503.614 236.951V21.021H321.562Z" fill="#231F20"/>
<path d="M466.95 227.974H358.065C355.776 227.956 353.586 227.041 351.964 225.426C350.342 223.812 349.418 221.625 349.39 219.337V214.162C349.395 211.849 350.316 209.632 351.952 207.997C353.588 206.361 355.805 205.44 358.119 205.436H467.004C469.319 205.436 471.539 206.355 473.176 207.992C474.813 209.628 475.732 211.848 475.732 214.162V219.337C475.709 221.645 474.771 223.85 473.125 225.469C471.479 227.088 469.259 227.989 466.95 227.974V227.974ZM358.065 207.22C356.233 207.234 354.48 207.972 353.19 209.272C351.899 210.573 351.175 212.33 351.175 214.162V219.337C351.18 221.175 351.913 222.936 353.215 224.234C354.517 225.532 356.28 226.261 358.119 226.261H467.004C468.842 226.261 470.606 225.532 471.907 224.234C473.209 222.936 473.943 221.175 473.947 219.337V214.162C473.947 212.321 473.216 210.555 471.914 209.253C470.611 207.952 468.845 207.22 467.004 207.22H358.065Z" fill="#231F20"/>
<path d="M361.51 79.5362H346.945V184.485H361.51V79.5362Z" fill="#00C49A"/>
<path d="M388.392 104.109H373.827V184.467H388.392V104.109Z" fill="#00C49A"/>
<path d="M415.256 88.102H400.691V184.485H415.256V88.102Z" fill="#00C49A"/>
<path d="M442.139 117.136H427.573V184.467H442.139V117.136Z" fill="#00C49A"/>
<path d="M469.021 88.102H454.455V184.485H469.021V88.102Z" fill="#00C49A"/>
<path d="M468.682 39.0984H443.995C443.758 39.0984 443.531 39.0044 443.364 38.8371C443.197 38.6698 443.103 38.4428 443.103 38.2062C443.103 37.9695 443.197 37.7425 443.364 37.5752C443.531 37.4079 443.758 37.3139 443.995 37.3139H468.646C468.881 37.3184 469.105 37.4139 469.272 37.5803C469.438 37.7466 469.534 37.9709 469.538 38.2062C469.539 38.4367 469.449 38.6584 469.29 38.8248C469.13 38.9911 468.912 39.0892 468.682 39.0984Z" fill="#231F20"/>
<path d="M460.06 48.2888H443.995C443.758 48.2888 443.531 48.1948 443.364 48.0275C443.197 47.8601 443.103 47.6332 443.103 47.3965C443.103 47.1599 443.197 46.9329 443.364 46.7656C443.531 46.5983 443.758 46.5043 443.995 46.5043H460.06C460.297 46.5043 460.524 46.5983 460.691 46.7656C460.858 46.9329 460.953 47.1599 460.953 47.3965C460.953 47.6332 460.858 47.8601 460.691 48.0275C460.524 48.1948 460.297 48.2888 460.06 48.2888Z" fill="#231F20"/>
<path d="M436.659 89.1905C428.876 89.1905 422.093 80.5177 416.631 73.5223C413.061 68.9895 409.723 64.5995 407.492 64.5995C404.957 64.5995 401.458 66.6875 397.764 68.8289C392.73 71.7377 387.054 75.0391 381.699 74.7357C371.685 74.2004 352.871 52.1077 352.085 51.1619C352.012 51.0781 351.955 50.9804 351.92 50.8745C351.884 50.7686 351.87 50.6567 351.878 50.5453C351.887 50.434 351.917 50.3254 351.968 50.226C352.019 50.1265 352.089 50.0382 352.175 49.9663C352.338 49.8093 352.555 49.7215 352.781 49.7215C353.008 49.7215 353.225 49.8093 353.388 49.9663C353.567 50.1983 372.506 72.4515 381.788 72.9512C386.679 73.2367 392.141 70.0602 396.96 67.2585C400.852 65.01 404.529 62.8864 407.492 62.7971C410.455 62.7079 413.9 66.9373 418.077 72.3088C423.432 79.1436 430.036 87.638 437.194 87.2989C443.388 86.9956 446.351 81.6062 449.493 75.8957C452.634 70.1852 455.615 64.7245 461.881 63.5288C462.093 63.512 462.303 63.5744 462.471 63.704C462.64 63.8337 462.754 64.0212 462.792 64.2303C462.83 64.4393 462.788 64.6549 462.676 64.8353C462.564 65.0157 462.389 65.1479 462.184 65.2063C456.722 66.2413 453.938 71.3273 450.974 76.7166C447.761 82.5877 444.423 88.6552 437.283 89.0121L436.659 89.1905Z" fill="#D1D3D4"/>
<path d="M481.48 185.324H335.11C334.998 185.324 334.888 185.302 334.785 185.258C334.682 185.215 334.588 185.152 334.51 185.072C334.432 184.992 334.371 184.898 334.33 184.794C334.289 184.69 334.269 184.579 334.271 184.467C334.28 184.249 334.372 184.043 334.528 183.891C334.684 183.738 334.892 183.651 335.11 183.646H481.48C481.707 183.646 481.925 183.737 482.086 183.897C482.246 184.058 482.337 184.276 482.337 184.503C482.334 184.613 482.31 184.722 482.266 184.823C482.222 184.923 482.158 185.015 482.078 185.091C481.999 185.167 481.905 185.227 481.802 185.267C481.7 185.307 481.59 185.326 481.48 185.324V185.324Z" fill="#D1D3D4"/>
<path d="M352.96 53.8923C352.31 53.8923 351.675 53.6997 351.135 53.3389C350.595 52.9781 350.174 52.4653 349.926 51.8653C349.677 51.2653 349.612 50.6051 349.739 49.9681C349.865 49.3312 350.178 48.7461 350.638 48.2869C351.097 47.8277 351.682 47.515 352.319 47.3883C352.956 47.2616 353.617 47.3266 354.217 47.5751C354.817 47.8236 355.33 48.2445 355.691 48.7845C356.052 49.3245 356.244 49.9593 356.244 50.6087C356.244 51.4796 355.898 52.3148 355.282 52.9306C354.666 53.5463 353.831 53.8923 352.96 53.8923ZM352.96 49.0383C352.645 49.0383 352.337 49.132 352.076 49.3073C351.814 49.4826 351.61 49.7317 351.491 50.023C351.371 50.3142 351.341 50.6345 351.403 50.9431C351.466 51.2516 351.619 51.5346 351.843 51.756C352.067 51.9774 352.352 52.1272 352.661 52.1864C352.97 52.2457 353.29 52.2117 353.58 52.0887C353.87 51.9658 354.117 51.7594 354.29 51.4959C354.462 51.2324 354.552 50.9236 354.549 50.6087C354.549 50.401 354.507 50.1953 354.427 50.0036C354.347 49.8119 354.23 49.638 354.082 49.4919C353.935 49.3459 353.759 49.2306 353.567 49.1527C353.374 49.0748 353.168 49.036 352.96 49.0383V49.0383Z" fill="#D1D3D4"/>
<path d="M461.845 67.8296C461.196 67.826 460.563 67.6305 460.025 67.2675C459.487 66.9046 459.069 66.3906 458.823 65.7903C458.578 65.19 458.515 64.5303 458.644 63.8946C458.772 63.2588 459.087 62.6754 459.547 62.218C460.007 61.7605 460.592 61.4496 461.229 61.3243C461.865 61.1991 462.525 61.2651 463.124 61.5142C463.723 61.7632 464.235 62.1841 464.595 62.7236C464.955 63.2632 465.147 63.8974 465.147 64.546C465.142 65.4185 464.792 66.2537 464.174 66.8689C463.555 67.4842 462.718 67.8296 461.845 67.8296ZM461.845 62.9578C461.531 62.9578 461.224 63.0509 460.962 63.2254C460.701 63.4 460.497 63.648 460.377 63.9382C460.257 64.2284 460.226 64.5478 460.287 64.8559C460.348 65.164 460.499 65.447 460.722 65.6691C460.944 65.8912 461.227 66.0425 461.535 66.1037C461.843 66.165 462.163 66.1336 462.453 66.0134C462.743 65.8932 462.991 65.6896 463.166 65.4284C463.34 65.1672 463.434 64.8601 463.434 64.546C463.434 64.1248 463.266 63.7208 462.968 63.423C462.67 63.1251 462.266 62.9578 461.845 62.9578V62.9578Z" fill="#D1D3D4"/>
<path d="M329.576 1.62305H495.492C497.859 1.62305 500.129 2.56312 501.803 4.23645C503.477 5.90978 504.417 8.17931 504.417 10.5458V20.0931H320.669V10.5458C320.669 8.1824 321.607 5.91557 323.277 4.24275C324.947 2.56993 327.212 1.62777 329.576 1.62305V1.62305Z" fill="white"/>
<path d="M504.417 21.021H320.669C320.433 21.021 320.206 20.927 320.038 20.7597C319.871 20.5923 319.777 20.3654 319.777 20.1287V10.5458C319.777 7.94575 320.809 5.45197 322.646 3.61182C324.483 1.77166 326.976 0.735501 329.576 0.730774H495.581C498.184 0.735491 500.678 1.77108 502.518 3.61073C504.358 5.45037 505.394 7.94411 505.399 10.5458V20.0931C505.405 20.2211 505.383 20.3489 505.335 20.4677C505.287 20.5865 505.214 20.6936 505.121 20.7817C505.027 20.8697 504.916 20.9367 504.795 20.978C504.674 21.0193 504.545 21.034 504.417 21.021ZM321.562 19.2365H503.525V10.5458C503.52 8.4174 502.672 6.37756 501.167 4.87259C499.661 3.36761 497.621 2.52003 495.492 2.51532H329.487C327.36 2.52004 325.321 3.36819 323.819 4.87368C322.316 6.37916 321.473 8.41904 321.473 10.5458L321.562 19.2365Z" fill="#231F20"/>
<path d="M131.067 111.961H8.13369C4.5157 111.961 1.58274 114.894 1.58274 118.511V272.517C1.58274 276.134 4.5157 279.066 8.13369 279.066H131.067C134.685 279.066 137.618 276.134 137.618 272.517V118.511C137.618 114.894 134.685 111.961 131.067 111.961Z" fill="white"/>
<path d="M131.067 280.012H8.13369C6.15957 280.012 4.2663 279.228 2.87038 277.832C1.47446 276.437 0.690247 274.544 0.690247 272.57V118.511C0.69496 116.538 1.48069 114.648 2.87559 113.254C4.27049 111.859 6.16102 111.074 8.13369 111.069H131.067C133.039 111.074 134.93 111.859 136.325 113.254C137.72 114.648 138.505 116.538 138.51 118.511V272.517C138.517 273.498 138.33 274.472 137.959 275.381C137.588 276.29 137.041 277.117 136.349 277.813C135.657 278.51 134.834 279.063 133.928 279.44C133.021 279.817 132.049 280.012 131.067 280.012V280.012ZM8.13369 112.854C6.63443 112.858 5.19792 113.456 4.13777 114.516C3.07762 115.576 2.47995 117.012 2.47525 118.511V272.517C2.46817 273.264 2.60931 274.005 2.8905 274.698C3.1717 275.39 3.58737 276.02 4.11351 276.551C4.63966 277.082 5.26583 277.504 5.95585 277.791C6.64588 278.079 7.38609 278.227 8.13369 278.227H131.067C132.567 278.227 134.007 277.631 135.068 276.57C136.129 275.509 136.725 274.07 136.725 272.57V118.511C136.72 117.012 136.123 115.576 135.063 114.516C134.002 113.456 132.566 112.858 131.067 112.854H8.13369Z" fill="#231F20"/>
<path d="M103.328 243.768H30.0178C29.7811 243.768 29.5541 243.674 29.3867 243.506C29.2193 243.339 29.1253 243.112 29.1253 242.875C29.1299 242.64 29.2254 242.416 29.3917 242.249C29.5581 242.083 29.7825 241.988 30.0178 241.983H103.328C103.564 241.983 103.791 242.077 103.959 242.244C104.126 242.412 104.22 242.639 104.22 242.875C104.22 243.112 104.126 243.339 103.959 243.506C103.791 243.674 103.564 243.768 103.328 243.768Z" fill="#D1D3D4"/>
<path d="M67.9312 255.742H30.0178C29.7825 255.737 29.5581 255.642 29.3917 255.475C29.2254 255.309 29.1299 255.085 29.1253 254.85C29.1253 254.613 29.2193 254.386 29.3867 254.219C29.5541 254.051 29.7811 253.957 30.0178 253.957H67.9312C68.1679 253.957 68.3949 254.051 68.5623 254.219C68.7297 254.386 68.8237 254.613 68.8237 254.85C68.8191 255.085 68.7236 255.309 68.5572 255.475C68.3908 255.642 68.1665 255.737 67.9312 255.742V255.742Z" fill="#D1D3D4"/>
<path d="M34.5517 149.579C45.2617 160.287 55.93 170.958 66.5567 181.594C66.7194 181.771 66.9186 181.911 67.1405 182.003C67.3624 182.095 67.6017 182.139 67.8419 182.13H116.876C116.607 189.702 114.522 197.098 110.796 203.696C107.07 210.294 101.812 215.9 95.4651 220.041C89.1185 224.182 81.8692 226.738 74.328 227.492C66.7869 228.246 59.1749 227.177 52.1334 224.375C45.092 221.573 38.8274 217.119 33.8677 211.39C28.908 205.661 25.3983 198.824 23.6346 191.455C21.8708 184.087 21.9046 176.402 23.7331 169.049C25.5616 161.696 29.1312 154.89 34.1411 149.205L34.5517 149.579Z" fill="#00C49A"/>
<path d="M71.3048 133.108V178.757H71.7689L115.966 178.65C116.947 178.65 116.947 178.65 116.876 177.668C116.319 168.986 113.396 160.622 108.425 153.482C103.454 146.341 96.623 140.697 88.6729 137.159C83.8201 135.04 78.6522 133.732 73.3754 133.287L71.3048 133.108Z" fill="#D1D3D4"/>
<path d="M67.9312 178.15V133.144C62.6222 133.419 57.3887 134.521 52.4195 136.41C46.4754 138.761 41.0528 142.259 36.4617 146.706L67.9312 178.15Z" fill="#D1D3D4"/>
<path d="M209.624 153.845C199.111 150.686 193.56 138.39 190.757 128.611C187.615 117.493 183.92 108.392 188.401 96.8105C189.418 94.1516 191.06 91.4569 193.756 90.6003C194.429 90.5034 195.077 90.2793 195.666 89.9401C196.134 89.4773 196.483 88.9078 196.683 88.2804C203.074 73.2189 221.156 72.8085 234.722 74.9321C242.576 76.1634 252.768 79.7503 255.213 87.8165C259.694 102.682 255.91 118.85 247.663 131.698C239.952 143.78 225.368 158.663 209.624 153.845Z" fill="white"/>
<path d="M215.64 155.629C213.517 155.635 211.405 155.322 209.375 154.701V154.701C198.397 151.4 192.721 138.837 189.9 128.861C189.543 127.594 189.186 126.345 188.811 125.113C185.955 115.423 183.456 107.036 187.562 96.5607C189.008 92.7953 191.043 90.5289 193.559 89.8151L194.095 89.6902C194.531 89.6939 194.953 89.5381 195.282 89.2521C195.611 88.9661 195.823 88.5697 195.88 88.1377C202.538 72.5051 220.87 71.8983 234.936 74.129C240.291 74.9677 253.25 77.9836 256.159 87.638C260.408 101.772 257.623 117.975 248.502 132.252C240.773 144.154 228.599 155.629 215.64 155.629ZM223.565 74.8964C212.855 74.8964 202.145 77.9301 197.558 88.6195C197.319 89.3949 196.875 90.0915 196.273 90.636C195.741 91.0095 195.13 91.2539 194.488 91.3498L194.041 91.4748C192.096 92.0101 190.471 93.9196 189.222 97.1317C185.366 107.107 187.758 115.227 190.525 124.614C190.9 125.845 191.257 127.094 191.632 128.379C194.327 137.909 199.682 149.936 209.892 153.006C224.172 157.271 238.452 144.547 246.967 131.217C255.802 117.44 258.516 101.718 254.41 88.0663C251.786 79.3934 239.702 76.6095 234.632 75.8243C230.973 75.2303 227.273 74.9201 223.565 74.8964V74.8964Z" fill="#231F20"/>
<path d="M257.391 123.757C257.391 123.757 268.654 137.837 266.887 141.139C265.12 144.44 258.123 142.923 258.123 142.923" fill="white"/>
<path d="M261.461 144.226C260.262 144.227 259.066 144.107 257.891 143.869C257.654 143.822 257.446 143.682 257.312 143.481C257.178 143.281 257.13 143.035 257.177 142.798C257.224 142.562 257.364 142.353 257.565 142.22C257.765 142.086 258.011 142.037 258.248 142.084C260.033 142.441 264.87 142.905 266.048 140.692C266.977 138.908 261.871 130.824 256.641 124.275C256.492 124.089 256.422 123.853 256.445 123.616C256.469 123.379 256.584 123.161 256.766 123.008C256.956 122.865 257.193 122.8 257.428 122.827C257.664 122.853 257.881 122.969 258.034 123.15C260.765 126.577 269.529 137.98 267.619 141.531C266.512 143.726 263.71 144.226 261.461 144.226Z" fill="#231F20"/>
<path d="M253.464 104.127C260.247 108.696 259.408 119.76 259.997 126.844C260.818 136.802 261.413 146.784 261.782 156.789C262.014 163.124 245.717 164.748 242.629 163.124L247.449 187.84L211.945 177.775L210.428 148.883C210.428 148.883 221.138 147.973 226.493 134.607C231.848 121.241 229.652 101.415 229.652 101.415C229.652 101.415 246.842 99.648 253.464 104.127Z" fill="white"/>
<path d="M247.449 188.732H247.199L211.659 178.668C211.479 178.619 211.319 178.516 211.2 178.372C211.082 178.228 211.011 178.051 210.999 177.864L209.482 148.955C209.471 148.727 209.549 148.504 209.698 148.331C209.848 148.158 210.058 148.05 210.285 148.027C210.713 148.027 220.62 146.974 225.565 134.25C230.652 121.152 228.688 101.664 228.67 101.468C228.656 101.232 228.725 100.998 228.867 100.808C228.942 100.717 229.034 100.642 229.138 100.587C229.242 100.531 229.356 100.498 229.474 100.487C230.188 100.487 247.163 98.8271 253.964 103.413C259.979 107.482 260.354 116.048 260.658 123.043C260.658 124.4 260.783 125.702 260.89 126.898C261.711 136.856 262.318 146.938 262.675 156.878C262.667 157.886 262.375 158.871 261.831 159.721C261.288 160.57 260.516 161.249 259.604 161.679C255.445 164.284 247.591 165.159 243.772 164.516L248.323 187.715C248.352 187.866 248.342 188.022 248.295 188.168C248.249 188.315 248.166 188.447 248.056 188.554C247.878 188.679 247.665 188.741 247.449 188.732V188.732ZM212.748 177.097L246.288 186.591L241.754 163.303C241.716 163.137 241.728 162.964 241.788 162.805C241.849 162.646 241.955 162.509 242.094 162.41C242.236 162.324 242.4 162.278 242.567 162.278C242.733 162.278 242.897 162.324 243.04 162.41C245.021 163.463 254.196 162.91 258.658 160.126C260.194 159.162 260.943 158.074 260.89 156.896C260.533 146.974 259.926 136.909 259.105 126.987C258.998 125.774 258.944 124.453 258.873 123.061C258.587 116.565 258.23 108.481 252.964 104.93C247.609 101.254 234.097 101.968 230.527 102.218C230.866 106.304 231.901 122.918 227.225 134.928C222.548 146.938 214.069 149.205 211.302 149.722L212.748 177.097Z" fill="#231F20"/>
<path d="M260.872 149.383C260.872 149.383 251.09 149.383 248.752 136.178Z" fill="white"/>
<path d="M260.872 150.275C260.765 150.275 250.305 150.115 247.859 136.338C247.823 136.104 247.879 135.866 248.015 135.672C248.152 135.479 248.358 135.347 248.591 135.303C248.823 135.261 249.062 135.313 249.256 135.447C249.45 135.58 249.583 135.785 249.626 136.017C251.786 148.295 260.515 148.509 260.872 148.509C261.109 148.509 261.336 148.603 261.503 148.77C261.67 148.937 261.764 149.164 261.764 149.401C261.76 149.635 261.664 149.857 261.497 150.02C261.33 150.184 261.105 150.275 260.872 150.275Z" fill="#231F20"/>
<path d="M238.863 131.895C238.354 129.433 237.174 127.161 235.453 125.328C234.325 123.737 232.965 122.324 231.419 121.134C230.644 120.542 229.747 120.131 228.793 119.93C227.838 119.73 226.851 119.745 225.904 119.974C225.101 120.266 224.368 120.724 223.753 121.317C223.138 121.91 222.654 122.626 222.334 123.418C221.692 125.02 221.418 126.746 221.53 128.468C221.699 132.234 222.859 135.889 224.893 139.063C226.927 142.237 229.763 144.819 233.115 146.546L232.526 145.993" fill="white"/>
<path d="M233.062 147.402C232.924 147.4 232.789 147.363 232.669 147.295C229.185 145.486 226.236 142.795 224.116 139.492C221.996 136.189 220.778 132.388 220.584 128.468C220.475 126.641 220.774 124.812 221.459 123.115C221.838 122.197 222.409 121.371 223.132 120.691C223.855 120.011 224.715 119.493 225.654 119.171C226.73 118.899 227.854 118.874 228.942 119.096C230.03 119.319 231.054 119.783 231.937 120.456C233.557 121.689 234.978 123.163 236.15 124.828C237.976 126.79 239.213 129.227 239.72 131.859C239.745 132.093 239.676 132.328 239.529 132.511C239.382 132.695 239.168 132.814 238.934 132.84C238.7 132.866 238.465 132.797 238.282 132.65C238.098 132.503 237.979 132.289 237.952 132.055C237.449 129.755 236.333 127.634 234.722 125.916C233.651 124.404 232.364 123.057 230.902 121.919C230.236 121.406 229.465 121.047 228.644 120.868C227.823 120.689 226.972 120.694 226.154 120.884C225.462 121.133 224.831 121.526 224.301 122.037C223.772 122.547 223.357 123.164 223.083 123.846C222.493 125.324 222.243 126.916 222.352 128.504C222.522 131.885 223.519 135.172 225.256 138.078C226.992 140.984 229.415 143.419 232.312 145.172C232.442 145.146 232.577 145.151 232.704 145.189C232.832 145.226 232.948 145.294 233.044 145.386L233.651 145.921C233.791 146.041 233.891 146.202 233.936 146.381C233.982 146.56 233.97 146.749 233.904 146.921C233.837 147.094 233.718 147.241 233.564 147.343C233.41 147.445 233.228 147.497 233.044 147.492L233.062 147.402Z" fill="#231F20"/>
<path d="M242.629 163.124C242.629 163.124 233.901 161.34 229.438 155.807C229.438 155.807 231.009 169.013 244.396 172.225L242.629 163.124Z" fill="#231F20"/>
<path d="M244.396 173.118H244.182C230.348 169.816 228.563 156.093 228.546 155.95C228.522 155.758 228.562 155.564 228.658 155.397C228.755 155.23 228.903 155.098 229.081 155.022C229.257 154.944 229.454 154.926 229.641 154.972C229.828 155.017 229.995 155.122 230.116 155.272C234.347 160.429 242.718 162.268 242.808 162.285C242.982 162.322 243.141 162.409 243.265 162.536C243.389 162.663 243.472 162.824 243.504 162.999L245.289 172.083C245.315 172.212 245.313 172.346 245.281 172.475C245.249 172.603 245.189 172.723 245.106 172.825C245.022 172.928 244.916 173.01 244.797 173.067C244.677 173.124 244.547 173.153 244.414 173.153L244.396 173.118ZM231.009 158.627C231.877 161.533 233.449 164.18 235.585 166.334C237.721 168.488 240.355 170.082 243.254 170.976L241.862 163.838C237.926 162.879 234.231 161.117 231.009 158.663V158.627Z" fill="#231F20"/>
<path d="M252.504 117.492C252.655 115.527 252.149 113.885 251.373 113.825C250.596 113.765 249.844 115.309 249.692 117.275C249.54 119.24 250.046 120.882 250.822 120.942C251.599 121.002 252.352 119.457 252.504 117.492Z" fill="#231F20"/>
<path d="M158.199 236.897L139.885 269.019L92.1894 220.087C92.1894 220.087 96.045 199.297 90.9042 200.956C87.6561 202.113 84.832 204.221 82.8002 207.006C82.8002 207.006 78.5698 178.453 67.4314 187.84C56.293 197.227 61.4159 213.716 69.859 229.563C76.1243 241.323 131.799 327.106 147.239 323.662C162.679 320.217 199.343 242.304 199.343 242.304L158.199 236.897Z" fill="white"/>
<path d="M146.382 324.625C128.835 324.625 74.6606 240.466 69.0736 230.044C62.0407 216.821 54.151 197.923 66.8602 187.215C69.2164 185.217 71.5012 184.61 73.661 185.431C79.5158 187.644 82.4075 200.082 83.3357 205.061C85.315 202.855 87.8293 201.195 90.6364 200.243C91.0152 200.094 91.4277 200.054 91.828 200.127C92.2283 200.199 92.6006 200.381 92.9033 200.653C95.8843 203.276 93.7958 216.286 93.1532 219.926L139.688 267.52L157.431 236.415C157.518 236.261 157.65 236.135 157.809 236.056C157.968 235.976 158.147 235.946 158.324 235.969L199.379 241.323C199.518 241.34 199.652 241.391 199.767 241.472C199.882 241.553 199.976 241.661 200.039 241.787C200.1 241.912 200.132 242.049 200.132 242.188C200.132 242.328 200.1 242.465 200.039 242.59C198.522 245.784 162.982 320.949 147.31 324.429C147.008 324.524 146.697 324.589 146.382 324.625V324.625ZM71.7511 186.805C70.3293 186.936 69.0006 187.569 68.0026 188.59C59.0776 196.156 59.9165 209.076 70.6622 229.224C77.4631 242.001 132.709 326.035 147.042 322.876C160.894 319.789 193.452 252.601 198.022 243.107L158.752 237.932L140.723 269.536C140.654 269.656 140.559 269.758 140.445 269.836C140.33 269.913 140.2 269.963 140.063 269.983C139.926 270.002 139.786 269.988 139.655 269.941C139.525 269.894 139.407 269.817 139.313 269.715L91.6181 220.783C91.5208 220.679 91.4491 220.554 91.4088 220.418C91.3685 220.281 91.3607 220.137 91.3861 219.998C92.5999 213.413 93.5459 203.473 91.7966 201.938C91.7966 201.938 91.6003 201.777 91.2433 201.938C88.1919 203.043 85.5344 205.023 83.6035 207.631C83.4994 207.778 83.3544 207.893 83.1864 207.959C83.0183 208.026 82.8345 208.042 82.6574 208.005C82.4843 207.965 82.3273 207.874 82.2064 207.743C82.0856 207.613 82.0064 207.449 81.9791 207.274C81.2473 202.331 78.2485 189.107 73.0541 187.18C72.6477 186.973 72.2054 186.846 71.7511 186.805V186.805Z" fill="#231F20"/>
<path d="M297.714 222.496C297.714 222.496 334.628 212.931 348.462 204.811C363.634 195.888 392.212 139.532 401.494 125.524C406.532 117.788 410.276 109.283 412.579 100.344C413.65 96.3465 414.15 93.4556 412.151 89.6367C411.74 88.8336 405.189 81.6598 404.886 82.4985C406.671 77.4839 408.456 72.7192 410.348 67.7582C410.847 66.3841 411.222 64.6531 410.169 63.6537C409.708 63.2934 409.139 63.0977 408.554 63.0977C407.968 63.0977 407.4 63.2934 406.938 63.6537C406.007 64.367 405.251 65.2823 404.725 66.3305L389.552 92.6347C389.674 89.3867 389.02 86.1565 387.642 83.2123C387.426 82.6213 387.033 82.1107 386.518 81.749C384.858 80.821 383.251 83.0874 382.734 84.9076C380.038 94.4014 381.984 105.84 376.165 114.246C371.738 120.634 332.415 167.782 332.415 167.782L297.714 176.705" fill="white"/>
<path d="M297.714 223.388C297.478 223.419 297.238 223.354 297.049 223.209C296.86 223.063 296.736 222.849 296.706 222.612C296.675 222.375 296.739 222.136 296.885 221.947C297.031 221.758 297.245 221.634 297.482 221.604C297.857 221.514 334.45 212.003 348.016 204.026C358.993 197.566 377.647 164.891 389.999 143.262C394.461 135.464 398.299 128.718 400.709 125.024C405.686 117.344 409.382 108.906 411.651 100.041C412.668 96.293 413.204 93.5627 411.294 89.9044C409.385 87.5114 407.257 85.301 404.939 83.3015C404.81 83.328 404.676 83.328 404.546 83.3015C404.324 83.2207 404.141 83.0561 404.038 82.8428C403.934 82.6295 403.918 82.3844 403.993 82.1594V82.1594C405.082 78.9473 406.296 75.7886 407.456 72.7192C408.134 70.9347 408.795 69.1501 409.455 67.3656C410.116 65.581 410.062 64.7423 409.455 64.2248C409.148 63.9973 408.776 63.8745 408.393 63.8745C408.011 63.8745 407.638 63.9973 407.331 64.2248C406.531 64.8866 405.886 65.7149 405.439 66.6518L390.213 93.0095C390.116 93.1837 389.962 93.3193 389.777 93.394C389.591 93.4687 389.386 93.4778 389.195 93.4199C389.041 93.3528 388.909 93.2434 388.814 93.1045C388.72 92.9656 388.666 92.8027 388.66 92.6347C388.764 89.5624 388.153 86.5081 386.875 83.712C386.724 83.2954 386.458 82.9303 386.107 82.6591C386.01 82.6027 385.899 82.573 385.786 82.573C385.673 82.573 385.562 82.6027 385.465 82.6591C384.552 83.2853 383.914 84.2365 383.68 85.3181C382.762 88.9467 382.164 92.649 381.895 96.3822C381.306 102.807 380.681 109.463 376.897 114.906C372.506 121.277 334.699 166.515 333.093 168.442C332.973 168.585 332.81 168.685 332.629 168.728L297.928 177.65C297.699 177.705 297.457 177.669 297.254 177.549C297.051 177.429 296.902 177.235 296.84 177.008C296.81 176.894 296.803 176.776 296.82 176.66C296.836 176.543 296.875 176.431 296.935 176.33C296.995 176.229 297.074 176.141 297.168 176.07C297.261 176 297.368 175.948 297.482 175.919L331.915 166.997C334.824 163.428 371.185 119.885 375.433 113.817C379.003 108.749 379.539 102.325 380.128 96.1324C380.377 92.2852 380.974 88.4685 381.913 84.7292C382.101 83.9284 382.454 83.1755 382.949 82.5182C383.443 81.8608 384.069 81.3133 384.786 80.9103C385.138 80.7609 385.52 80.6961 385.901 80.7209C386.283 80.7456 386.653 80.8594 386.982 81.053C387.668 81.4634 388.195 82.0917 388.481 82.8376C389.467 84.945 390.1 87.1996 390.356 89.5118L403.993 65.8666C404.59 64.6868 405.451 63.6608 406.51 62.8685C407.146 62.4033 407.918 62.1615 408.706 62.1809C409.494 62.2002 410.253 62.4797 410.865 62.9756C411.972 64.0285 412.115 65.7417 411.258 68.0437C410.598 69.8283 409.919 71.6128 409.241 73.3973C408.188 76.1812 407.099 79.0543 406.082 81.9631C408.655 84.0704 410.979 86.4654 413.007 89.1013C415.203 93.3128 414.596 96.4893 413.507 100.522C411.176 109.548 407.396 118.136 402.315 125.952C399.888 129.61 396.068 136.32 391.605 144.083C378.414 167.175 360.368 198.815 348.962 205.507C335.199 213.609 299.499 222.888 297.982 223.352L297.714 223.388Z" fill="#231F20"/>
<path d="M306.55 376.377L295.001 323.876L179.815 354.766C179.815 354.766 180.047 363.386 180.368 376.341L306.55 376.377Z" fill="#231F20"/>
<path d="M329.755 164.016C329.755 164.016 198.7 161.25 182.064 184.771C169.117 204.289 158.276 225.124 149.72 246.926L173.282 268.948C173.178 300.091 174.763 331.218 178.03 362.19C218.639 369.328 302.766 336.849 302.052 336.528L291.342 227.671L341.5 212.181L329.755 164.016Z" fill="#00C49A"/>
<path d="M171.747 260.774C171.63 260.77 171.514 260.742 171.408 260.693C171.301 260.644 171.206 260.574 171.126 260.488C171.046 260.402 170.985 260.301 170.944 260.191C170.904 260.081 170.885 259.964 170.89 259.846C170.89 257.883 172.443 211.432 178.815 195.192C178.857 195.082 178.92 194.981 179.001 194.895C179.083 194.81 179.18 194.742 179.289 194.695C179.397 194.648 179.514 194.624 179.632 194.624C179.75 194.623 179.867 194.647 179.976 194.693C180.086 194.732 180.186 194.793 180.272 194.873C180.357 194.953 180.425 195.049 180.472 195.156C180.519 195.263 180.543 195.378 180.544 195.495C180.544 195.612 180.521 195.727 180.475 195.835C174.228 211.789 172.693 259.436 172.675 259.9C172.666 260.138 172.563 260.363 172.39 260.527C172.216 260.69 171.985 260.779 171.747 260.774Z" fill="#231F20"/>
<path d="M273.403 233.239C273.209 233.242 273.019 233.18 272.864 233.064C272.709 232.948 272.597 232.783 272.546 232.596C272.485 232.367 272.516 232.123 272.633 231.916C272.75 231.709 272.943 231.557 273.17 231.49L310.209 220.961C310.446 220.895 310.699 220.925 310.914 221.046C311.128 221.166 311.285 221.367 311.352 221.604C311.418 221.84 311.387 222.094 311.267 222.308C311.146 222.522 310.946 222.679 310.709 222.746L273.652 233.275C273.568 233.28 273.482 233.268 273.403 233.239Z" fill="#231F20"/>
<path d="M418.202 358.246H353.424C352.526 358.248 351.636 358.073 350.805 357.731C349.975 357.388 349.22 356.885 348.585 356.249C347.949 355.614 347.446 354.86 347.103 354.03C346.76 353.199 346.585 352.309 346.588 351.411V279.869C346.588 278.971 346.764 278.083 347.108 277.253C347.452 276.424 347.955 275.671 348.59 275.036C349.225 274.401 349.978 273.898 350.808 273.554C351.637 273.211 352.526 273.034 353.424 273.034H410.544L424.967 287.096V351.34C424.976 352.237 424.809 353.128 424.474 353.961C424.139 354.794 423.643 355.552 423.015 356.194C422.387 356.835 421.639 357.346 420.813 357.699C419.987 358.051 419.1 358.237 418.202 358.246V358.246Z" fill="white"/>
<path d="M418.202 359.138H353.424C351.374 359.138 349.408 358.324 347.959 356.875C346.509 355.426 345.695 353.461 345.695 351.411V279.869C345.7 277.821 346.516 275.858 347.964 274.41C349.412 272.962 351.376 272.147 353.424 272.142H410.544C410.66 272.139 410.775 272.16 410.882 272.203C410.989 272.246 411.087 272.31 411.169 272.392L425.61 286.472C425.776 286.638 425.872 286.861 425.877 287.096V351.34C425.892 353.391 425.091 355.364 423.652 356.826C422.214 358.288 420.253 359.119 418.202 359.138V359.138ZM353.424 273.926C351.849 273.931 350.34 274.559 349.226 275.672C348.112 276.786 347.485 278.294 347.48 279.869V351.393C347.48 352.174 347.634 352.947 347.932 353.668C348.231 354.388 348.669 355.044 349.221 355.595C349.773 356.147 350.428 356.585 351.149 356.884C351.871 357.182 352.644 357.336 353.424 357.336H418.202C419.777 357.331 421.286 356.704 422.4 355.59C423.513 354.477 424.141 352.968 424.146 351.393V287.471L410.241 273.926H353.424Z" fill="#231F20"/>
<path d="M331.808 14.1148C333.464 14.1148 334.807 12.7726 334.807 11.1168C334.807 9.46104 333.464 8.11877 331.808 8.11877C330.152 8.11877 328.809 9.46104 328.809 11.1168C328.809 12.7726 330.152 14.1148 331.808 14.1148Z" fill="#00C49A"/>
<path d="M342.214 14.1148C343.871 14.1148 345.213 12.7726 345.213 11.1168C345.213 9.46104 343.871 8.11877 342.214 8.11877C340.558 8.11877 339.216 9.46104 339.216 11.1168C339.216 12.7726 340.558 14.1148 342.214 14.1148Z" fill="#D1D3D4"/>
<path d="M352.621 14.1148C354.277 14.1148 355.62 12.7726 355.62 11.1168C355.62 9.46104 354.277 8.11877 352.621 8.11877C350.965 8.11877 349.622 9.46104 349.622 11.1168C349.622 12.7726 350.965 14.1148 352.621 14.1148Z" fill="#D1D3D4"/>
<path d="M410.08 58.1752C409.876 58.1736 409.679 58.0974 409.527 57.961C409.356 57.8155 409.249 57.6087 409.229 57.3851C409.208 57.1615 409.277 56.939 409.42 56.7654L417.131 47.6285C417.212 47.5327 417.313 47.4558 417.427 47.4034C417.541 47.3509 417.666 47.3242 417.791 47.3252H437.087C437.324 47.3252 437.551 47.4192 437.718 47.5865C437.886 47.7538 437.98 47.9808 437.98 48.2174C437.98 48.4541 437.886 48.681 437.718 48.8484C437.551 49.0157 437.324 49.1097 437.087 49.1097H418.148L410.687 58.0324C410.51 58.1545 410.293 58.2055 410.08 58.1752V58.1752Z" fill="#D1D3D4"/>
<path d="M410.615 273.034V287.525L425.038 287.096L410.615 273.034Z" fill="#00C49A"/>
<path d="M410.598 288.417C410.371 288.416 410.153 288.326 409.991 288.167C409.9 288.086 409.828 287.987 409.779 287.876C409.73 287.766 409.705 287.646 409.705 287.525V273.034C409.708 272.859 409.762 272.688 409.86 272.542C409.959 272.396 410.097 272.282 410.258 272.213C410.419 272.143 410.596 272.123 410.768 272.155C410.94 272.187 411.098 272.269 411.222 272.392L425.663 286.472C425.784 286.595 425.867 286.752 425.901 286.921C425.935 287.091 425.919 287.267 425.855 287.428C425.79 287.589 425.681 287.728 425.539 287.827C425.397 287.927 425.229 287.983 425.056 287.989L410.633 288.417H410.598ZM411.49 275.158V286.614L422.896 286.275L411.49 275.158Z" fill="#231F20"/>
<path d="M98.419 310.724H80.087C77.3957 310.724 75.214 312.905 75.214 315.595V333.923C75.214 336.613 77.3957 338.795 80.087 338.795H98.419C101.11 338.795 103.292 336.613 103.292 333.923V315.595C103.292 312.905 101.11 310.724 98.419 310.724Z" fill="#00C49A"/>
<path d="M93.5816 301.73H74.6428C72.1191 301.73 70.0732 303.775 70.0732 306.298V325.232C70.0732 327.755 72.1191 329.8 74.6428 329.8H93.5816C96.1054 329.8 98.1512 327.755 98.1512 325.232V306.298C98.1512 303.775 96.1054 301.73 93.5816 301.73Z" fill="white"/>
<path d="M93.5816 330.693H74.6428C73.9225 330.697 73.2084 330.56 72.5416 330.287C71.8748 330.015 71.2684 329.613 70.7574 329.106C70.2464 328.598 69.8409 327.995 69.5642 327.33C69.2874 326.665 69.145 325.952 69.145 325.232V306.298C69.145 304.85 69.7205 303.461 70.7448 302.437C71.7691 301.413 73.1584 300.837 74.6071 300.837H93.5459C94.2632 300.837 94.9735 300.979 95.6362 301.253C96.2989 301.527 96.901 301.93 97.4082 302.437C97.9154 302.944 98.3178 303.546 98.5923 304.208C98.8668 304.871 99.008 305.581 99.008 306.298V325.232C99.0081 326.674 98.4375 328.058 97.4209 329.081C96.4042 330.104 95.0241 330.683 93.5816 330.693V330.693ZM74.6428 302.622C74.1569 302.617 73.6749 302.709 73.2247 302.891C72.7744 303.074 72.3648 303.344 72.0196 303.686C71.6743 304.028 71.4003 304.435 71.2133 304.883C71.0262 305.331 70.93 305.812 70.93 306.298V325.232C70.93 326.207 71.3174 327.142 72.007 327.831C72.6966 328.521 73.6319 328.908 74.6071 328.908H93.5459C94.5212 328.908 95.4564 328.521 96.146 327.831C96.8356 327.142 97.223 326.207 97.223 325.232V306.298C97.223 305.323 96.8356 304.388 96.146 303.699C95.4564 303.009 94.5212 302.622 93.5459 302.622H74.6428Z" fill="#231F20"/>
<path d="M381.948 342.274V338.063C380.413 337.635 378.932 337.331 377.486 336.832C374.697 335.96 372.282 334.174 370.631 331.763C369.273 329.635 368.583 327.149 368.65 324.625H376.879C376.933 326.056 377.457 327.43 378.37 328.533C379.283 329.636 380.535 330.408 381.931 330.728V319.557C380.271 319.075 378.628 318.629 376.986 318.112C375.196 317.596 373.556 316.66 372.202 315.381C370.798 313.976 369.868 312.166 369.543 310.206C369.066 307.824 369.245 305.357 370.06 303.068C370.666 301.42 371.628 299.926 372.878 298.692C374.127 297.458 375.634 296.515 377.29 295.93C378.656 295.5 380.044 295.142 381.449 294.859L381.948 294.752V288.934H389.66V289.488C389.66 291.076 389.66 292.682 389.66 294.27C389.66 294.663 389.785 294.788 390.159 294.877C392.781 295.385 395.235 296.538 397.299 298.232C399.496 300.026 400.952 302.568 401.387 305.37C401.53 306.137 401.583 306.923 401.69 307.726H393.319C393.305 306.584 392.961 305.47 392.327 304.52C391.693 303.57 390.798 302.824 389.749 302.372V312.812L390.659 313.026C392.923 313.464 395.127 314.164 397.228 315.114C398.806 315.798 400.168 316.898 401.168 318.297C402.167 319.696 402.768 321.341 402.904 323.055C403.397 326.248 402.622 329.508 400.744 332.138C399.199 334.277 397.029 335.886 394.533 336.742C392.98 337.278 391.373 337.617 389.713 338.081V342.167L381.948 342.274ZM389.677 321.056V330.764C390.932 330.581 392.111 330.056 393.087 329.247C393.59 328.837 393.993 328.317 394.263 327.727C394.533 327.137 394.663 326.493 394.644 325.844C394.625 325.195 394.457 324.559 394.153 323.986C393.849 323.413 393.417 322.917 392.89 322.537C391.855 321.97 390.782 321.475 389.677 321.056V321.056ZM381.931 311.116V301.73C380.92 302.171 379.937 302.672 378.985 303.229C378.439 303.618 377.997 304.137 377.701 304.739C377.404 305.341 377.262 306.007 377.287 306.678C377.312 307.348 377.503 308.002 377.843 308.581C378.183 309.159 378.661 309.644 379.235 309.992C380.074 310.438 380.985 310.742 381.931 311.134V311.116Z" fill="#00C49A"/>
</svg>
