<svg width="108" height="24" viewBox="0 0 108 24" fill="none" xmlns="http://www.w3.org/2000/svg">
<path d="M11.8 19H5.5C3.5 19 2.09167 18.6583 1.275 17.975C0.475 17.275 0.0750001 16.05 0.0750001 14.3V1.2H11.8V4.3H3.55V8.475H9.325L9.075 11.575H3.55V14.05C3.55 14.75 3.70833 15.2333 4.025 15.5C4.34167 15.7667 4.91667 15.9 5.75 15.9H11.8V19ZM33.3617 19H30.1117V10.125C30.1117 9.24167 30.0034 8.625 29.7867 8.275C29.5867 7.925 29.2284 7.75 28.7117 7.75L25.7867 8.975V19H22.5367V10.125C22.5367 8.54167 21.9867 7.75 20.8867 7.75L18.2117 8.975V19H14.9617V4.725H17.3867L18.1367 6.425L21.8867 4.575C23.1867 4.575 24.1701 5.20833 24.8367 6.475L29.4867 4.575C30.7867 4.575 31.7534 5.01667 32.3867 5.9C33.0367 6.76667 33.3617 7.94167 33.3617 9.425V19ZM48.2611 11.475C48.2611 15.1917 47.3028 17.5667 45.3861 18.6C44.6028 19.0167 43.6445 19.225 42.5111 19.225L40.1111 17.675V23.25H36.8611V4.825H43.2611C45.1945 4.825 46.5111 5.375 47.2111 6.475C47.9111 7.55833 48.2611 9.225 48.2611 11.475ZM45.0111 11.975C45.0111 9.15833 44.1111 7.75 42.3111 7.75H40.1111V14.375L42.3111 15.8C43.2778 15.8 43.9695 15.5 44.3861 14.9C44.8028 14.2833 45.0111 13.3083 45.0111 11.975ZM64.0004 13.875C64.0004 15.525 63.5504 16.7917 62.6504 17.675C61.7671 18.5583 60.5254 19 58.9254 19H56.5254C54.5587 19 53.1587 18.6583 52.3254 17.975C51.5087 17.2917 51.1004 16.1083 51.1004 14.425V1.2H58.6254C60.3254 1.2 61.6004 1.625 62.4504 2.475C63.3171 3.325 63.7504 4.525 63.7504 6.075C63.7504 6.975 63.5171 7.74167 63.0504 8.375C62.6004 9.00833 62.1004 9.45833 61.5504 9.725C63.1837 10.4917 64.0004 11.875 64.0004 13.875ZM58.3504 8.15C59.6337 8.15 60.2754 7.50833 60.2754 6.225C60.2754 4.94167 59.6337 4.3 58.3504 4.3H54.5754V8.15H58.3504ZM60.5254 13.7C60.5254 12.9 60.3837 12.3 60.1004 11.9C59.8171 11.4833 59.3087 11.275 58.5754 11.275H54.5754V14.075C54.5754 14.7583 54.7421 15.2333 55.0754 15.5C55.4254 15.7667 55.9921 15.9 56.7754 15.9H58.5754C59.8754 15.9 60.5254 15.1667 60.5254 13.7ZM77.1305 19H74.9555L73.9555 17.275L70.4805 19.15C68.5471 19.15 67.2471 18.45 66.5805 17.05C66.2471 16.3667 66.0138 15.6333 65.8805 14.85C65.7638 14.05 65.7055 13.225 65.7055 12.375C65.7055 11.5083 65.7138 10.875 65.7305 10.475C65.7471 10.0583 65.7888 9.58333 65.8555 9.05C65.9221 8.5 66.0138 8.04167 66.1305 7.675C66.2638 7.30833 66.4471 6.93333 66.6805 6.55C66.9138 6.15 67.1971 5.83333 67.5305 5.6C68.2805 5.08333 69.2555 4.825 70.4555 4.825H73.8805L77.1305 4.625V19ZM73.8805 14.45V7.75H71.4055C70.4888 7.75 69.8471 8.1 69.4805 8.8C69.1305 9.5 68.9555 10.55 68.9555 11.95C68.9555 13.3333 69.1221 14.3083 69.4555 14.875C69.8055 15.4417 70.4555 15.725 71.4055 15.725L73.8805 14.45ZM91.735 19H88.485V9.875C88.485 9.05833 88.3183 8.5 87.985 8.2C87.6516 7.9 87.185 7.75 86.585 7.75L83.66 8.975V19H80.41V4.725H82.835L83.585 6.425L87.585 4.575C88.7016 4.575 89.6683 4.99167 90.485 5.825C91.3183 6.64167 91.735 7.84167 91.735 9.425V19ZM107.266 19H103.366L99.616 13.95L98.191 15.975V19H94.941V0.199999H98.191V12.075L102.741 5.3H106.416L101.741 11.7L107.266 19Z" fill="#00C49A"/>
</svg>
